<mxfile host="Electron" agent="Mozilla/5.0 (X11; Linux x86_64) AppleWebKit/537.36 (KHTML, like Gecko) draw.io/24.7.17 Chrome/130.0.6723.59 Electron/33.0.2 Safari/537.36" version="24.7.17">
  <diagram name="Page-1" id="kgBVDZDBwnCPUz4cevTW">
    <mxGraphModel dx="819" dy="547" grid="1" gridSize="10" guides="1" tooltips="1" connect="1" arrows="1" fold="1" page="1" pageScale="1" pageWidth="850" pageHeight="1100" math="0" shadow="0">
      <root>
        <mxCell id="0" />
        <mxCell id="1" parent="0" />
        <mxCell id="vDEo4kNYeOIZdBxUOT63-1" value="AWS t3 micro Instance" style="rounded=0;whiteSpace=wrap;html=1;" parent="1" vertex="1">
          <mxGeometry x="235" y="150" width="190" height="40" as="geometry" />
        </mxCell>
        <mxCell id="oUDSAecNK9drEYaaKJBQ-1" value="&amp;nbsp;EBS Volume" style="rounded=0;whiteSpace=wrap;html=1;" parent="1" vertex="1">
          <mxGeometry x="235" y="130" width="190" height="20" as="geometry" />
        </mxCell>
        <mxCell id="oUDSAecNK9drEYaaKJBQ-2" value="MkDocs" style="rounded=0;whiteSpace=wrap;html=1;" parent="1" vertex="1">
          <mxGeometry x="275" y="230" width="60" height="20" as="geometry" />
        </mxCell>
        <mxCell id="oUDSAecNK9drEYaaKJBQ-4" value="Gitea" style="rounded=0;whiteSpace=wrap;html=1;" parent="1" vertex="1">
          <mxGeometry x="335" y="230" width="50" height="20" as="geometry" />
        </mxCell>
        <mxCell id="oUDSAecNK9drEYaaKJBQ-5" value="Git" style="rounded=0;whiteSpace=wrap;html=1;" parent="1" vertex="1">
          <mxGeometry x="235" y="230" width="40" height="20" as="geometry" />
        </mxCell>
        <mxCell id="oUDSAecNK9drEYaaKJBQ-6" value="SSH" style="rounded=0;whiteSpace=wrap;html=1;" parent="1" vertex="1">
          <mxGeometry x="385" y="230" width="40" height="20" as="geometry" />
        </mxCell>
        <mxCell id="oUDSAecNK9drEYaaKJBQ-15" value="Gitea0 NixOs Configuration" style="rounded=0;whiteSpace=wrap;html=1;" parent="1" vertex="1">
          <mxGeometry x="235" y="210" width="190" height="20" as="geometry" />
        </mxCell>
        <mxCell id="oUDSAecNK9drEYaaKJBQ-41" value="Personal Laptop" style="rounded=0;whiteSpace=wrap;html=1;" parent="1" vertex="1">
          <mxGeometry x="142.5" y="590" width="335" height="40" as="geometry" />
        </mxCell>
        <mxCell id="oUDSAecNK9drEYaaKJBQ-43" value="Local Encrypted SSD" style="rounded=0;whiteSpace=wrap;html=1;" parent="1" vertex="1">
          <mxGeometry x="142.5" y="630" width="335" height="20" as="geometry" />
        </mxCell>
        <mxCell id="DivgLnzNjorbfxClGmwI-43" style="edgeStyle=orthogonalEdgeStyle;rounded=0;orthogonalLoop=1;jettySize=auto;html=1;entryX=0.1;entryY=0.5;entryDx=0;entryDy=0;entryPerimeter=0;" parent="1" source="oUDSAecNK9drEYaaKJBQ-44" target="DivgLnzNjorbfxClGmwI-44" edge="1">
          <mxGeometry relative="1" as="geometry">
            <mxPoint x="190" y="200" as="targetPoint" />
            <Array as="points">
              <mxPoint x="120" y="580" />
              <mxPoint x="120" y="190" />
            </Array>
          </mxGeometry>
        </mxCell>
        <mxCell id="oUDSAecNK9drEYaaKJBQ-44" value="gamebox0 NixOs Configuration" style="rounded=0;whiteSpace=wrap;html=1;" parent="1" vertex="1">
          <mxGeometry x="142.5" y="570" width="335" height="20" as="geometry" />
        </mxCell>
        <mxCell id="DivgLnzNjorbfxClGmwI-58" style="edgeStyle=orthogonalEdgeStyle;rounded=0;orthogonalLoop=1;jettySize=auto;html=1;" parent="1" source="oUDSAecNK9drEYaaKJBQ-45" edge="1">
          <mxGeometry relative="1" as="geometry">
            <mxPoint x="250" y="250" as="targetPoint" />
            <Array as="points">
              <mxPoint x="250" y="250" />
            </Array>
          </mxGeometry>
        </mxCell>
        <mxCell id="DivgLnzNjorbfxClGmwI-64" style="edgeStyle=orthogonalEdgeStyle;rounded=0;orthogonalLoop=1;jettySize=auto;html=1;entryX=0.75;entryY=0;entryDx=0;entryDy=0;" parent="1" source="oUDSAecNK9drEYaaKJBQ-45" target="DivgLnzNjorbfxClGmwI-34" edge="1">
          <mxGeometry relative="1" as="geometry">
            <Array as="points">
              <mxPoint x="250" y="490" />
              <mxPoint x="317" y="490" />
            </Array>
          </mxGeometry>
        </mxCell>
        <mxCell id="oUDSAecNK9drEYaaKJBQ-45" value="Env Repo Working Copy" style="rounded=0;whiteSpace=wrap;html=1;" parent="1" vertex="1">
          <mxGeometry x="142.5" y="550" width="145" height="20" as="geometry" />
        </mxCell>
        <mxCell id="DivgLnzNjorbfxClGmwI-1" value="env-bak S3 bucket" style="shape=cylinder3;whiteSpace=wrap;html=1;boundedLbl=1;backgroundOutline=1;size=15;" parent="1" vertex="1">
          <mxGeometry x="610" y="180" width="70" height="80" as="geometry" />
        </mxCell>
        <mxCell id="DivgLnzNjorbfxClGmwI-3" value="" style="endArrow=none;dashed=1;html=1;dashPattern=1 3;strokeWidth=2;rounded=0;" parent="1" edge="1">
          <mxGeometry width="50" height="50" relative="1" as="geometry">
            <mxPoint x="30" y="350" as="sourcePoint" />
            <mxPoint x="830" y="350" as="targetPoint" />
          </mxGeometry>
        </mxCell>
        <mxCell id="DivgLnzNjorbfxClGmwI-24" value="LAN" style="text;html=1;align=center;verticalAlign=middle;whiteSpace=wrap;rounded=0;" parent="1" vertex="1">
          <mxGeometry x="30" y="350" width="60" height="30" as="geometry" />
        </mxCell>
        <mxCell id="DivgLnzNjorbfxClGmwI-25" value="WAN" style="text;html=1;align=center;verticalAlign=middle;whiteSpace=wrap;rounded=0;" parent="1" vertex="1">
          <mxGeometry x="30" y="320" width="60" height="30" as="geometry" />
        </mxCell>
        <mxCell id="DivgLnzNjorbfxClGmwI-38" style="edgeStyle=orthogonalEdgeStyle;rounded=0;orthogonalLoop=1;jettySize=auto;html=1;" parent="1" source="DivgLnzNjorbfxClGmwI-29" target="DivgLnzNjorbfxClGmwI-36" edge="1">
          <mxGeometry relative="1" as="geometry">
            <Array as="points">
              <mxPoint x="570" y="540" />
              <mxPoint x="570" y="590" />
            </Array>
          </mxGeometry>
        </mxCell>
        <mxCell id="DivgLnzNjorbfxClGmwI-39" style="edgeStyle=orthogonalEdgeStyle;rounded=0;orthogonalLoop=1;jettySize=auto;html=1;" parent="1" source="DivgLnzNjorbfxClGmwI-29" target="DivgLnzNjorbfxClGmwI-1" edge="1">
          <mxGeometry relative="1" as="geometry">
            <mxPoint x="590" y="260" as="targetPoint" />
            <Array as="points">
              <mxPoint x="570" y="540" />
              <mxPoint x="570" y="300" />
              <mxPoint x="650" y="300" />
            </Array>
          </mxGeometry>
        </mxCell>
        <mxCell id="DivgLnzNjorbfxClGmwI-29" value="gitea-server-qemu0 NixOs Conf" style="rounded=0;whiteSpace=wrap;html=1;" parent="1" vertex="1">
          <mxGeometry x="287.5" y="530" width="190" height="20" as="geometry" />
        </mxCell>
        <mxCell id="DivgLnzNjorbfxClGmwI-30" value="KVM" style="rounded=0;whiteSpace=wrap;html=1;" parent="1" vertex="1">
          <mxGeometry x="287.5" y="550" width="190" height="20" as="geometry" />
        </mxCell>
        <mxCell id="DivgLnzNjorbfxClGmwI-32" value="MkDocs" style="rounded=0;whiteSpace=wrap;html=1;" parent="1" vertex="1">
          <mxGeometry x="320" y="510" width="70" height="20" as="geometry" />
        </mxCell>
        <mxCell id="DivgLnzNjorbfxClGmwI-33" value="Gitea" style="rounded=0;whiteSpace=wrap;html=1;" parent="1" vertex="1">
          <mxGeometry x="387.5" y="510" width="50" height="20" as="geometry" />
        </mxCell>
        <mxCell id="DivgLnzNjorbfxClGmwI-34" value="Git" style="rounded=0;whiteSpace=wrap;html=1;" parent="1" vertex="1">
          <mxGeometry x="287.5" y="510" width="40" height="20" as="geometry" />
        </mxCell>
        <mxCell id="DivgLnzNjorbfxClGmwI-35" value="SSH" style="rounded=0;whiteSpace=wrap;html=1;" parent="1" vertex="1">
          <mxGeometry x="437.5" y="510" width="40" height="20" as="geometry" />
        </mxCell>
        <mxCell id="DivgLnzNjorbfxClGmwI-36" value="Local NAS (One day)" style="shape=cylinder3;whiteSpace=wrap;html=1;boundedLbl=1;backgroundOutline=1;size=15;" parent="1" vertex="1">
          <mxGeometry x="610" y="550" width="70" height="80" as="geometry" />
        </mxCell>
        <mxCell id="DivgLnzNjorbfxClGmwI-37" value="NixOs-Gitea-AMI" style="rounded=0;whiteSpace=wrap;html=1;" parent="1" vertex="1">
          <mxGeometry x="235" y="190" width="190" height="20" as="geometry" />
        </mxCell>
        <mxCell id="DivgLnzNjorbfxClGmwI-40" value="Backup" style="text;html=1;align=center;verticalAlign=middle;whiteSpace=wrap;rounded=0;" parent="1" vertex="1">
          <mxGeometry x="510" y="510" width="60" height="30" as="geometry" />
        </mxCell>
        <mxCell id="DivgLnzNjorbfxClGmwI-44" value="" style="shape=curlyBracket;whiteSpace=wrap;html=1;rounded=1;labelPosition=left;verticalLabelPosition=middle;align=right;verticalAlign=middle;" parent="1" vertex="1">
          <mxGeometry x="190" y="120" width="20" height="140" as="geometry" />
        </mxCell>
        <mxCell id="DivgLnzNjorbfxClGmwI-45" value="Launch" style="text;html=1;align=center;verticalAlign=middle;whiteSpace=wrap;rounded=0;" parent="1" vertex="1">
          <mxGeometry x="60" y="450" width="60" height="30" as="geometry" />
        </mxCell>
        <mxCell id="DivgLnzNjorbfxClGmwI-50" value="Push SSH Auth Only" style="text;html=1;align=center;verticalAlign=middle;whiteSpace=wrap;rounded=0;" parent="1" vertex="1">
          <mxGeometry x="162.5" y="470" width="75" height="40" as="geometry" />
        </mxCell>
        <mxCell id="DivgLnzNjorbfxClGmwI-56" style="edgeStyle=orthogonalEdgeStyle;rounded=0;orthogonalLoop=1;jettySize=auto;html=1;entryX=0;entryY=0.5;entryDx=0;entryDy=0;entryPerimeter=0;" parent="1" source="oUDSAecNK9drEYaaKJBQ-15" target="DivgLnzNjorbfxClGmwI-1" edge="1">
          <mxGeometry relative="1" as="geometry" />
        </mxCell>
        <mxCell id="DivgLnzNjorbfxClGmwI-57" value="Backup" style="text;html=1;align=center;verticalAlign=middle;whiteSpace=wrap;rounded=0;" parent="1" vertex="1">
          <mxGeometry x="450" y="190" width="60" height="30" as="geometry" />
        </mxCell>
        <mxCell id="DivgLnzNjorbfxClGmwI-61" value="Public" style="ellipse;shape=cloud;whiteSpace=wrap;html=1;" parent="1" vertex="1">
          <mxGeometry x="295" y="280" width="85" height="40" as="geometry" />
        </mxCell>
        <mxCell id="DivgLnzNjorbfxClGmwI-62" style="edgeStyle=orthogonalEdgeStyle;rounded=0;orthogonalLoop=1;jettySize=auto;html=1;entryX=0.118;entryY=0.25;entryDx=0;entryDy=0;entryPerimeter=0;startArrow=classic;startFill=1;" parent="1" source="oUDSAecNK9drEYaaKJBQ-2" target="DivgLnzNjorbfxClGmwI-61" edge="1">
          <mxGeometry relative="1" as="geometry" />
        </mxCell>
        <mxCell id="DivgLnzNjorbfxClGmwI-63" style="edgeStyle=orthogonalEdgeStyle;rounded=0;orthogonalLoop=1;jettySize=auto;html=1;entryX=0.763;entryY=0.168;entryDx=0;entryDy=0;entryPerimeter=0;startArrow=classic;startFill=1;" parent="1" source="oUDSAecNK9drEYaaKJBQ-4" target="DivgLnzNjorbfxClGmwI-61" edge="1">
          <mxGeometry relative="1" as="geometry" />
        </mxCell>
      </root>
    </mxGraphModel>
  </diagram>
</mxfile>
